<svg width="335" height="157" viewBox="0 0 335 157" fill="none" xmlns="http://www.w3.org/2000/svg">
<path d="M78.5 139.665L69.0146 131.03C35.325 100.48 13.0833 80.3317 13.0833 55.6042C13.0833 35.4558 28.9142 19.625 49.0625 19.625C60.445 19.625 71.3696 24.9238 78.5 33.2971C85.6304 24.9238 96.555 19.625 107.938 19.625C128.086 19.625 143.917 35.4558 143.917 55.6042C143.917 80.3317 121.675 100.48 87.9854 131.095L78.5 139.665Z" fill="#00B0FF"/>
<rect x="69.5286" y="51.5857" width="17.9429" height="47.1" rx="2" fill="white"/>
<rect x="102.05" y="66.1643" width="17.9429" height="47.1" rx="2" transform="rotate(90 102.05 66.1643)" fill="white"/>
<path d="M186.192 60.8447C186.192 59.2822 185.639 58.0778 184.532 57.2314C183.442 56.3851 181.464 55.5306 178.6 54.668C175.735 53.8053 173.456 52.8451 171.764 51.7871C168.525 49.7526 166.905 47.0996 166.905 43.8281C166.905 40.9635 168.069 38.6035 170.396 36.748C172.74 34.8926 175.776 33.9648 179.503 33.9648C181.977 33.9648 184.182 34.4206 186.119 35.332C188.056 36.2435 189.578 37.5456 190.685 39.2383C191.791 40.9147 192.345 42.7783 192.345 44.8291H186.192C186.192 42.9736 185.606 41.5251 184.435 40.4834C183.279 39.4255 181.619 38.8965 179.454 38.8965C177.436 38.8965 175.865 39.3278 174.742 40.1904C173.635 41.0531 173.082 42.2575 173.082 43.8037C173.082 45.1058 173.684 46.1963 174.889 47.0752C176.093 47.9378 178.079 48.7842 180.846 49.6143C183.613 50.4281 185.834 51.3639 187.511 52.4219C189.187 53.4635 190.416 54.668 191.197 56.0352C191.979 57.3861 192.369 58.973 192.369 60.7959C192.369 63.7581 191.23 66.1182 188.951 67.876C186.689 69.6175 183.613 70.4883 179.723 70.4883C177.151 70.4883 174.783 70.0163 172.618 69.0723C170.47 68.112 168.793 66.7936 167.589 65.1172C166.401 63.4408 165.807 61.4876 165.807 59.2578H171.983C171.983 61.276 172.651 62.8385 173.985 63.9453C175.32 65.0521 177.232 65.6055 179.723 65.6055C181.871 65.6055 183.482 65.1742 184.557 64.3115C185.647 63.4326 186.192 62.277 186.192 60.8447ZM208.849 70.4883C205.089 70.4883 202.037 69.3083 199.693 66.9482C197.366 64.5719 196.202 61.4144 196.202 57.4756V56.7432C196.202 54.1064 196.707 51.7546 197.716 49.6875C198.741 47.6042 200.174 45.9847 202.013 44.8291C203.852 43.6735 205.903 43.0957 208.165 43.0957C211.762 43.0957 214.537 44.2432 216.49 46.5381C218.46 48.833 219.444 52.0801 219.444 56.2793V58.6719H202.184C202.363 60.8529 203.087 62.5781 204.356 63.8477C205.642 65.1172 207.254 65.752 209.19 65.752C211.909 65.752 214.122 64.6533 215.831 62.4561L219.029 65.5078C217.971 67.0866 216.555 68.3154 214.781 69.1943C213.023 70.057 211.046 70.4883 208.849 70.4883ZM208.141 47.8564C206.513 47.8564 205.195 48.4261 204.186 49.5654C203.193 50.7048 202.558 52.2917 202.281 54.3262H213.585V53.8867C213.455 51.901 212.926 50.4036 211.998 49.3945C211.07 48.3691 209.785 47.8564 208.141 47.8564ZM229.918 46.4648C231.855 44.2188 234.304 43.0957 237.267 43.0957C242.898 43.0957 245.755 46.3102 245.836 52.7393V70H239.903V52.959C239.903 51.1361 239.505 49.8503 238.707 49.1016C237.926 48.3366 236.77 47.9541 235.24 47.9541C232.864 47.9541 231.09 49.012 229.918 51.1279V70H223.985V32.5H229.918V46.4648ZM267.638 70C267.377 69.4954 267.149 68.6735 266.954 67.5342C265.066 69.5036 262.755 70.4883 260.021 70.4883C257.368 70.4883 255.203 69.7314 253.526 68.2178C251.85 66.7041 251.012 64.8324 251.012 62.6025C251.012 59.7868 252.053 57.6302 254.137 56.1328C256.236 54.6191 259.231 53.8623 263.121 53.8623H266.759V52.1289C266.759 50.7617 266.376 49.6712 265.611 48.8574C264.846 48.0273 263.683 47.6123 262.12 47.6123C260.769 47.6123 259.662 47.9541 258.8 48.6377C257.937 49.305 257.506 50.1595 257.506 51.2012H251.573C251.573 49.7526 252.053 48.4017 253.014 47.1484C253.974 45.8789 255.276 44.8861 256.92 44.1699C258.58 43.4538 260.427 43.0957 262.462 43.0957C265.554 43.0957 268.02 43.877 269.859 45.4395C271.699 46.9857 272.643 49.1667 272.691 51.9824V63.8965C272.691 66.2728 273.025 68.1689 273.692 69.585V70H267.638ZM261.119 65.7275C262.291 65.7275 263.39 65.4427 264.415 64.873C265.457 64.3034 266.238 63.5384 266.759 62.5781V57.5977H263.561C261.363 57.5977 259.711 57.9801 258.604 58.7451C257.498 59.5101 256.944 60.5924 256.944 61.9922C256.944 63.1315 257.319 64.043 258.067 64.7266C258.832 65.3939 259.85 65.7275 261.119 65.7275ZM286.339 37.1631V43.584H291.002V47.9785H286.339V62.7246C286.339 63.7337 286.534 64.4661 286.925 64.9219C287.332 65.3613 288.048 65.5811 289.073 65.5811C289.757 65.5811 290.449 65.4997 291.148 65.3369V69.9268C289.798 70.3011 288.495 70.4883 287.242 70.4883C282.685 70.4883 280.406 67.9736 280.406 62.9443V47.9785H276.061V43.584H280.406V37.1631H286.339Z" fill="black"/>
<path d="M175.621 93.4531L185.875 120.699L196.104 93.4531H204.088V129H197.936V117.281L198.546 101.607L188.048 129H183.629L173.155 101.632L173.766 117.281V129H167.613V93.4531H175.621ZM226.622 129C226.362 128.495 226.134 127.674 225.938 126.534C224.05 128.504 221.739 129.488 219.005 129.488C216.352 129.488 214.187 128.731 212.511 127.218C210.834 125.704 209.996 123.832 209.996 121.603C209.996 118.787 211.038 116.63 213.121 115.133C215.221 113.619 218.215 112.862 222.105 112.862H225.743V111.129C225.743 109.762 225.361 108.671 224.596 107.857C223.831 107.027 222.667 106.612 221.104 106.612C219.754 106.612 218.647 106.954 217.784 107.638C216.922 108.305 216.49 109.16 216.49 110.201H210.558C210.558 108.753 211.038 107.402 211.998 106.148C212.958 104.879 214.26 103.886 215.904 103.17C217.564 102.454 219.412 102.096 221.446 102.096C224.539 102.096 227.005 102.877 228.844 104.439C230.683 105.986 231.627 108.167 231.676 110.982V122.896C231.676 125.273 232.009 127.169 232.677 128.585V129H226.622ZM220.104 124.728C221.275 124.728 222.374 124.443 223.399 123.873C224.441 123.303 225.222 122.538 225.743 121.578V116.598H222.545C220.348 116.598 218.696 116.98 217.589 117.745C216.482 118.51 215.929 119.592 215.929 120.992C215.929 122.132 216.303 123.043 217.052 123.727C217.817 124.394 218.834 124.728 220.104 124.728ZM243.395 102.584L243.565 105.636C245.519 103.276 248.082 102.096 251.256 102.096C256.757 102.096 259.557 105.245 259.654 111.544V129H253.722V111.886C253.722 110.209 253.355 108.972 252.623 108.175C251.907 107.361 250.727 106.954 249.083 106.954C246.69 106.954 244.908 108.036 243.736 110.201V129H237.804V102.584H243.395ZM264.61 115.597C264.61 111.528 265.554 108.264 267.442 105.807C269.33 103.333 271.861 102.096 275.035 102.096C277.835 102.096 280.097 103.072 281.822 105.025V91.5H287.755V129H282.384L282.091 126.266C280.317 128.414 277.949 129.488 274.986 129.488C271.894 129.488 269.387 128.243 267.467 125.753C265.562 123.263 264.61 119.877 264.61 115.597ZM270.543 116.109C270.543 118.795 271.056 120.895 272.081 122.408C273.123 123.906 274.596 124.654 276.5 124.654C278.925 124.654 280.699 123.572 281.822 121.407V110.128C280.732 108.012 278.974 106.954 276.549 106.954C274.628 106.954 273.147 107.719 272.105 109.249C271.064 110.763 270.543 113.049 270.543 116.109ZM300.255 129H294.322V102.584H300.255V129ZM293.956 95.7236C293.956 94.8122 294.241 94.0553 294.811 93.4531C295.396 92.8509 296.227 92.5498 297.301 92.5498C298.375 92.5498 299.205 92.8509 299.791 93.4531C300.377 94.0553 300.67 94.8122 300.67 95.7236C300.67 96.6188 300.377 97.3675 299.791 97.9697C299.205 98.5557 298.375 98.8486 297.301 98.8486C296.227 98.8486 295.396 98.5557 294.811 97.9697C294.241 97.3675 293.956 96.6188 293.956 95.7236ZM320.567 108.004C319.786 107.874 318.98 107.809 318.15 107.809C315.432 107.809 313.601 108.85 312.657 110.934V129H306.725V102.584H312.389L312.535 105.538C313.967 103.243 315.953 102.096 318.492 102.096C319.339 102.096 320.038 102.21 320.592 102.438L320.567 108.004ZM330.626 129H324.693V102.584H330.626V129ZM324.327 95.7236C324.327 94.8122 324.612 94.0553 325.182 93.4531C325.768 92.8509 326.598 92.5498 327.672 92.5498C328.746 92.5498 329.576 92.8509 330.162 93.4531C330.748 94.0553 331.041 94.8122 331.041 95.7236C331.041 96.6188 330.748 97.3675 330.162 97.9697C329.576 98.5557 328.746 98.8486 327.672 98.8486C326.598 98.8486 325.768 98.5557 325.182 97.9697C324.612 97.3675 324.327 96.6188 324.327 95.7236Z" fill="black"/>
</svg>
