<svg width="302" height="116" viewBox="0 0 302 116" fill="none" xmlns="http://www.w3.org/2000/svg">
<path d="M153.192 37.8447C153.192 36.2822 152.639 35.0778 151.532 34.2314C150.442 33.3851 148.464 32.5306 145.6 31.668C142.735 30.8053 140.456 29.8451 138.764 28.7871C135.525 26.7526 133.905 24.0996 133.905 20.8281C133.905 17.9635 135.069 15.6035 137.396 13.748C139.74 11.8926 142.776 10.9648 146.503 10.9648C148.977 10.9648 151.182 11.4206 153.119 12.332C155.056 13.2435 156.578 14.5456 157.685 16.2383C158.791 17.9147 159.345 19.7783 159.345 21.8291H153.192C153.192 19.9736 152.606 18.5251 151.435 17.4834C150.279 16.4255 148.619 15.8965 146.454 15.8965C144.436 15.8965 142.865 16.3278 141.742 17.1904C140.635 18.0531 140.082 19.2575 140.082 20.8037C140.082 22.1058 140.684 23.1963 141.889 24.0752C143.093 24.9378 145.079 25.7842 147.846 26.6143C150.613 27.4281 152.834 28.3639 154.511 29.4219C156.187 30.4635 157.416 31.668 158.197 33.0352C158.979 34.3861 159.369 35.973 159.369 37.7959C159.369 40.7581 158.23 43.1182 155.951 44.876C153.689 46.6175 150.613 47.4883 146.723 47.4883C144.151 47.4883 141.783 47.0163 139.618 46.0723C137.47 45.112 135.793 43.7936 134.589 42.1172C133.401 40.4408 132.807 38.4876 132.807 36.2578H138.983C138.983 38.276 139.651 39.8385 140.985 40.9453C142.32 42.0521 144.232 42.6055 146.723 42.6055C148.871 42.6055 150.482 42.1742 151.557 41.3115C152.647 40.4326 153.192 39.277 153.192 37.8447ZM175.849 47.4883C172.089 47.4883 169.037 46.3083 166.693 43.9482C164.366 41.5719 163.202 38.4144 163.202 34.4756V33.7432C163.202 31.1064 163.707 28.7546 164.716 26.6875C165.741 24.6042 167.174 22.9847 169.013 21.8291C170.852 20.6735 172.903 20.0957 175.165 20.0957C178.762 20.0957 181.537 21.2432 183.49 23.5381C185.46 25.833 186.444 29.0801 186.444 33.2793V35.6719H169.184C169.363 37.8529 170.087 39.5781 171.356 40.8477C172.642 42.1172 174.254 42.752 176.19 42.752C178.909 42.752 181.122 41.6533 182.831 39.4561L186.029 42.5078C184.971 44.0866 183.555 45.3154 181.781 46.1943C180.023 47.057 178.046 47.4883 175.849 47.4883ZM175.141 24.8564C173.513 24.8564 172.195 25.4261 171.186 26.5654C170.193 27.7048 169.558 29.2917 169.281 31.3262H180.585V30.8867C180.455 28.901 179.926 27.4036 178.998 26.3945C178.07 25.3691 176.785 24.8564 175.141 24.8564ZM196.918 23.4648C198.855 21.2188 201.304 20.0957 204.267 20.0957C209.898 20.0957 212.755 23.3102 212.836 29.7393V47H206.903V29.959C206.903 28.1361 206.505 26.8503 205.707 26.1016C204.926 25.3366 203.77 24.9541 202.24 24.9541C199.864 24.9541 198.09 26.012 196.918 28.1279V47H190.985V9.5H196.918V23.4648ZM234.638 47C234.377 46.4954 234.149 45.6735 233.954 44.5342C232.066 46.5036 229.755 47.4883 227.021 47.4883C224.368 47.4883 222.203 46.7314 220.526 45.2178C218.85 43.7041 218.012 41.8324 218.012 39.6025C218.012 36.7868 219.053 34.6302 221.137 33.1328C223.236 31.6191 226.231 30.8623 230.121 30.8623H233.759V29.1289C233.759 27.7617 233.376 26.6712 232.611 25.8574C231.846 25.0273 230.683 24.6123 229.12 24.6123C227.769 24.6123 226.662 24.9541 225.8 25.6377C224.937 26.305 224.506 27.1595 224.506 28.2012H218.573C218.573 26.7526 219.053 25.4017 220.014 24.1484C220.974 22.8789 222.276 21.8861 223.92 21.1699C225.58 20.4538 227.427 20.0957 229.462 20.0957C232.554 20.0957 235.02 20.877 236.859 22.4395C238.699 23.9857 239.643 26.1667 239.691 28.9824V40.8965C239.691 43.2728 240.025 45.1689 240.692 46.585V47H234.638ZM228.119 42.7275C229.291 42.7275 230.39 42.4427 231.415 41.873C232.457 41.3034 233.238 40.5384 233.759 39.5781V34.5977H230.561C228.363 34.5977 226.711 34.9801 225.604 35.7451C224.498 36.5101 223.944 37.5924 223.944 38.9922C223.944 40.1315 224.319 41.043 225.067 41.7266C225.832 42.3939 226.85 42.7275 228.119 42.7275ZM253.339 14.1631V20.584H258.002V24.9785H253.339V39.7246C253.339 40.7337 253.534 41.4661 253.925 41.9219C254.332 42.3613 255.048 42.5811 256.073 42.5811C256.757 42.5811 257.449 42.4997 258.148 42.3369V46.9268C256.798 47.3011 255.495 47.4883 254.242 47.4883C249.685 47.4883 247.406 44.9736 247.406 39.9443V24.9785H243.061V20.584H247.406V14.1631H253.339Z" fill="black"/>
<path d="M142.621 68.4531L152.875 95.6992L163.104 68.4531H171.088V104H164.936V92.2812L165.546 76.6074L155.048 104H150.629L140.155 76.6318L140.766 92.2812V104H134.613V68.4531H142.621ZM193.622 104C193.362 103.495 193.134 102.674 192.938 101.534C191.05 103.504 188.739 104.488 186.005 104.488C183.352 104.488 181.187 103.731 179.511 102.218C177.834 100.704 176.996 98.8324 176.996 96.6025C176.996 93.7868 178.038 91.6302 180.121 90.1328C182.221 88.6191 185.215 87.8623 189.105 87.8623H192.743V86.1289C192.743 84.7617 192.361 83.6712 191.596 82.8574C190.831 82.0273 189.667 81.6123 188.104 81.6123C186.754 81.6123 185.647 81.9541 184.784 82.6377C183.922 83.305 183.49 84.1595 183.49 85.2012H177.558C177.558 83.7526 178.038 82.4017 178.998 81.1484C179.958 79.8789 181.26 78.8861 182.904 78.1699C184.564 77.4538 186.412 77.0957 188.446 77.0957C191.539 77.0957 194.005 77.877 195.844 79.4395C197.683 80.9857 198.627 83.1667 198.676 85.9824V97.8965C198.676 100.273 199.009 102.169 199.677 103.585V104H193.622ZM187.104 99.7275C188.275 99.7275 189.374 99.4427 190.399 98.873C191.441 98.3034 192.222 97.5384 192.743 96.5781V91.5977H189.545C187.348 91.5977 185.696 91.9801 184.589 92.7451C183.482 93.5101 182.929 94.5924 182.929 95.9922C182.929 97.1315 183.303 98.043 184.052 98.7266C184.817 99.3939 185.834 99.7275 187.104 99.7275ZM210.395 77.584L210.565 80.6357C212.519 78.2757 215.082 77.0957 218.256 77.0957C223.757 77.0957 226.557 80.2451 226.654 86.5439V104H220.722V86.8857C220.722 85.2093 220.355 83.9723 219.623 83.1748C218.907 82.361 217.727 81.9541 216.083 81.9541C213.69 81.9541 211.908 83.0365 210.736 85.2012V104H204.804V77.584H210.395ZM231.61 90.5967C231.61 86.5277 232.554 83.2643 234.442 80.8066C236.33 78.3327 238.861 77.0957 242.035 77.0957C244.835 77.0957 247.097 78.0723 248.822 80.0254V66.5H254.755V104H249.384L249.091 101.266C247.317 103.414 244.949 104.488 241.986 104.488C238.894 104.488 236.387 103.243 234.467 100.753C232.562 98.2627 231.61 94.8773 231.61 90.5967ZM237.543 91.1094C237.543 93.7949 238.056 95.8945 239.081 97.4082C240.123 98.9056 241.596 99.6543 243.5 99.6543C245.925 99.6543 247.699 98.5719 248.822 96.4072V85.1279C247.732 83.012 245.974 81.9541 243.549 81.9541C241.628 81.9541 240.147 82.7191 239.105 84.249C238.064 85.7627 237.543 88.0495 237.543 91.1094ZM267.255 104H261.322V77.584H267.255V104ZM260.956 70.7236C260.956 69.8122 261.241 69.0553 261.811 68.4531C262.396 67.8509 263.227 67.5498 264.301 67.5498C265.375 67.5498 266.205 67.8509 266.791 68.4531C267.377 69.0553 267.67 69.8122 267.67 70.7236C267.67 71.6188 267.377 72.3675 266.791 72.9697C266.205 73.5557 265.375 73.8486 264.301 73.8486C263.227 73.8486 262.396 73.5557 261.811 72.9697C261.241 72.3675 260.956 71.6188 260.956 70.7236ZM287.567 83.0039C286.786 82.8737 285.98 82.8086 285.15 82.8086C282.432 82.8086 280.601 83.8503 279.657 85.9336V104H273.725V77.584H279.389L279.535 80.5381C280.967 78.2432 282.953 77.0957 285.492 77.0957C286.339 77.0957 287.038 77.2096 287.592 77.4375L287.567 83.0039ZM297.626 104H291.693V77.584H297.626V104ZM291.327 70.7236C291.327 69.8122 291.612 69.0553 292.182 68.4531C292.768 67.8509 293.598 67.5498 294.672 67.5498C295.746 67.5498 296.576 67.8509 297.162 68.4531C297.748 69.0553 298.041 69.8122 298.041 70.7236C298.041 71.6188 297.748 72.3675 297.162 72.9697C296.576 73.5557 295.746 73.8486 294.672 73.8486C293.598 73.8486 292.768 73.5557 292.182 72.9697C291.612 72.3675 291.327 71.6188 291.327 70.7236Z" fill="black"/>
<path d="M98.7669 1L107.767 9.5C106.767 12.3333 104.567 19.3 103.767 24.5C102.767 31 111.767 57.5 107.767 68.5C103.767 79.5 93.2669 90.5 82.7669 96.5C72.2669 102.5 59.2669 109.5 55.2669 114C54.4318 114.94 53.9417 110.36 53.6972 102.382C53.0049 79.7899 54.2815 29.9451 55.2669 1H98.7669Z" fill="#00B0FF"/>
<path d="M55.2669 1H40L53.6972 102.382C53.0049 79.7899 54.2815 29.9451 55.2669 1Z" fill="#00B0FF"/>
<path d="M55.2669 114C59.2669 109.5 72.2669 102.5 82.7669 96.5C93.2669 90.5 103.767 79.5 107.767 68.5C111.767 57.5 102.767 31 103.767 24.5C104.567 19.3 106.767 12.3333 107.767 9.5L98.7669 1H55.2669M55.2669 114L53.6972 102.382M55.2669 114C54.4318 114.94 53.9417 110.36 53.6972 102.382M55.2669 1H40L53.6972 102.382M55.2669 1C54.2815 29.9451 53.0049 79.7899 53.6972 102.382" stroke="#00B0FF"/>
<path d="M11.0309 1L2.03091 9.5C3.03091 12.3333 5.2309 19.3 6.03091 24.5C7.03091 31 -1.96909 57.5 2.03091 68.5C6.03091 79.5 16.5309 90.5 27.0309 96.5C37.5309 102.5 50.5309 109.5 54.5309 114C55.366 114.94 55.8561 110.36 56.1006 102.382C56.7929 79.7899 55.5163 29.9451 54.5309 1H11.0309Z" fill="#00B0FF"/>
<path d="M54.5309 1H69.7978L56.1006 102.382C56.7929 79.7899 55.5163 29.9451 54.5309 1Z" fill="#00B0FF"/>
<path d="M54.5309 114C50.5309 109.5 37.5309 102.5 27.0309 96.5C16.5309 90.5 6.03091 79.5 2.03091 68.5C-1.96909 57.5 7.03091 31 6.03091 24.5C5.23091 19.3 3.03091 12.3333 2.03091 9.5L11.0309 1H54.5309M54.5309 114L56.1006 102.382M54.5309 114C55.366 114.94 55.8561 110.36 56.1006 102.382M54.5309 1H69.7978L56.1006 102.382M54.5309 1C55.5163 29.9451 56.7929 79.7899 56.1006 102.382" stroke="#00B0FF"/>
<rect x="44.5" y="26" width="20" height="53" fill="white"/>
<rect x="81" y="42.5" width="20" height="53" transform="rotate(90 81 42.5)" fill="white"/>
</svg>
